<svg width="1640" height="340" viewBox="0 0 1640 340" xmlns="http://www.w3.org/2000/svg">
<defs><pattern id="dz" width="4" height="4" patternUnits="userSpaceOnUse"><rect width="4" height="4" fill="#0F6E6A"/><rect width="2" height="2" fill="#0D6360"/><rect x="2" y="2" width="2" height="2" fill="#0D6360"/></pattern><pattern id="sb" width="4" height="4" patternUnits="userSpaceOnUse"><rect width="4" height="4" fill="#FFFFFF"/><rect width="2" height="2" fill="#C8C5BE"/><rect x="2" y="2" width="2" height="2" fill="#C8C5BE"/></pattern><pattern id="scan" width="4" height="4" patternUnits="userSpaceOnUse"><rect width="4" height="4" fill="#161616"/><rect y="2" width="4" height="1" fill="#0C0C0C"/></pattern><pattern id="crt" width="6" height="3" patternUnits="userSpaceOnUse"><rect width="6" height="3" fill="none"/><rect y="2" width="6" height="1" fill="#161616" fill-opacity="0.14"/></pattern><linearGradient id="case" x1="0" y1="0" x2="0" y2="1"><stop offset="0" stop-color="#E9E5D9"/><stop offset="1" stop-color="#CFCBBD"/></linearGradient><linearGradient id="tb" x1="0" y1="0" x2="1" y2="0"><stop offset="0" stop-color="#000080"/><stop offset="1" stop-color="#2F6FB8"/></linearGradient><radialGradient id="vig" cx="0.5" cy="0.45" r="0.75"><stop offset="0.75" stop-color="#161616" stop-opacity="0"/><stop offset="1" stop-color="#161616" stop-opacity="0.22"/></radialGradient></defs>
<rect width="1640" height="340" fill="url(#scan)"/>
<rect x="1319" y="67" width="2" height="2" fill="#5A5A5A" opacity="0.7"/><rect x="511" y="124" width="2" height="2" fill="#E8A33D" opacity="0.7"/><rect x="1395" y="289" width="2" height="2" fill="#E8A33D" opacity="0.7"/><rect x="75" y="25" width="2" height="2" fill="#9A9A9A" opacity="0.7"/><rect x="486" y="268" width="3" height="3" fill="#E8A33D" opacity="0.7"/><rect x="1159" y="111" width="3" height="3" fill="#E8A33D" opacity="0.7"/><rect x="461" y="239" width="3" height="3" fill="#5A5A5A" opacity="0.7"/><rect x="23" y="91" width="3" height="3" fill="#E8A33D" opacity="0.7"/><rect x="706" y="152" width="2" height="2" fill="#9A9A9A" opacity="0.7"/><rect x="1573" y="182" width="2" height="2" fill="#E8A33D" opacity="0.7"/><rect x="788" y="59" width="2" height="2" fill="#5A5A5A" opacity="0.7"/><rect x="1246" y="145" width="2" height="2" fill="#E8A33D" opacity="0.7"/><rect x="1108" y="73" width="2" height="2" fill="#E8A33D" opacity="0.7"/><rect x="1140" y="160" width="3" height="3" fill="#5A5A5A" opacity="0.7"/><rect x="1192" y="108" width="3" height="3" fill="#E8A33D" opacity="0.7"/><rect x="103" y="126" width="2" height="2" fill="#E8A33D" opacity="0.7"/><rect x="486" y="61" width="2" height="2" fill="#5A5A5A" opacity="0.7"/><rect x="938" y="196" width="2" height="2" fill="#5A5A5A" opacity="0.7"/><rect x="737" y="117" width="3" height="3" fill="#5A5A5A" opacity="0.7"/><rect x="1447" y="46" width="3" height="3" fill="#9A9A9A" opacity="0.7"/><rect x="1103" y="135" width="2" height="2" fill="#E8A33D" opacity="0.7"/><rect x="787" y="148" width="3" height="3" fill="#9A9A9A" opacity="0.7"/><rect x="1412" y="176" width="2" height="2" fill="#9A9A9A" opacity="0.7"/><rect x="75" y="171" width="2" height="2" fill="#5A5A5A" opacity="0.7"/><rect x="145" y="118" width="3" height="3" fill="#5A5A5A" opacity="0.7"/><rect x="445" y="265" width="2" height="2" fill="#E8A33D" opacity="0.7"/><rect x="302" y="145" width="2" height="2" fill="#9A9A9A" opacity="0.7"/><rect x="1535" y="297" width="3" height="3" fill="#5A5A5A" opacity="0.7"/><rect x="1539" y="309" width="2" height="2" fill="#E8A33D" opacity="0.7"/><rect x="751" y="122" width="2" height="2" fill="#E8A33D" opacity="0.7"/><circle cx="150" cy="86" r="24" fill="#E8C46A" opacity="0.55"/><circle cx="142" cy="80" r="6" fill="#D3AC4C" opacity="0.6"/><circle cx="160" cy="94" r="4" fill="#D3AC4C" opacity="0.6"/><circle cx="152" cy="72" r="3" fill="#D3AC4C" opacity="0.6"/><text x="820" y="64" text-anchor="middle" font-family="ui-monospace,'Courier New',monospace" font-size="16" letter-spacing="6" fill="#6F6F6F">— SESSION ENDED —</text><text x="820" y="118" text-anchor="middle" font-family="ui-monospace,'Courier New',monospace" font-weight="bold" font-size="36" fill="#E8A33D">It's now safe to connect with dishanth.</text><rect x="1262" y="90" width="18" height="34" fill="#E8A33D"/><text x="820" y="150" text-anchor="middle" font-family="ui-monospace,'Courier New',monospace" font-size="18" fill="#9A9A9A">(or press any button below to keep the session alive)</text><rect x="350" y="180" width="380" height="54" fill="#C8C5BE"/><path d="M350 233 L350 180 L729 180" stroke="#FFFFFF" stroke-width="2" fill="none"/><path d="M729 180 L729 233 L350 233" stroke="#161616" stroke-width="2" fill="none"/><path d="M727 182 L727 231 L352 231" stroke="#8A867E" stroke-width="2" fill="none"/><text x="540" y="216" text-anchor="middle" font-family="ui-monospace,'Courier New',monospace" font-weight="bold" font-size="22" fill="#161616">dishanthk02@gmail.com</text><rect x="760" y="180" width="250" height="54" fill="#C8C5BE"/><path d="M760 233 L760 180 L1009 180" stroke="#FFFFFF" stroke-width="2" fill="none"/><path d="M1009 180 L1009 233 L760 233" stroke="#161616" stroke-width="2" fill="none"/><path d="M1007 182 L1007 231 L762 231" stroke="#8A867E" stroke-width="2" fill="none"/><text x="885" y="216" text-anchor="middle" font-family="ui-monospace,'Courier New',monospace" font-weight="bold" font-size="22" fill="#161616">in/dishanth-ca</text><rect x="1040" y="180" width="250" height="54" fill="#C8C5BE"/><path d="M1040 233 L1040 180 L1289 180" stroke="#FFFFFF" stroke-width="2" fill="none"/><path d="M1289 180 L1289 233 L1040 233" stroke="#161616" stroke-width="2" fill="none"/><path d="M1287 182 L1287 231 L1042 231" stroke="#8A867E" stroke-width="2" fill="none"/><text x="1165" y="216" text-anchor="middle" font-family="ui-monospace,'Courier New',monospace" font-weight="bold" font-size="22" fill="#161616">dishanthca.com</text><text x="820" y="298" text-anchor="middle" font-family="ui-monospace,'Courier New',monospace" font-size="19" fill="#8A867E">© 2026 dishanth ca · jersey city · all packets inspected</text><polygon points="0,0 260,0 120,340 0,340" fill="#FFFFFF" opacity="0.025"/>
</svg>